<?xml version="1.0" encoding="utf-8"?>
<!-- Generator: Adobe Illustrator 19.2.1, SVG Export Plug-In . SVG Version: 6.00 Build 0)  -->
<svg version="1.1" id="圖層_1" xmlns="http://www.w3.org/2000/svg" xmlns:xlink="http://www.w3.org/1999/xlink" x="0px" y="0px"
	 viewBox="0 0 384.4 50.9" style="enable-background:new 0 0 384.4 50.9;" xml:space="preserve">
<style type="text/css">
	.st0{fill:#20C5BC;}
	.st1{fill:#A0A0A0;}
</style>
<title>dachen_logo</title>
<path class="st0" d="M19,0H5C4.7,0,4.4,0.3,4.3,0.6L0,50.2c0,0.3,0.2,0.6,0.5,0.6c0,0,0.1,0,0.1,0h14c14,0,26.4-11.4,27.7-25.4
	S33.1,0,19,0z M35.2,25.4c-1.1,10.3-9.6,18.2-20,18.4H7.6L10.8,7h7.6c9.2-0.2,16.7,7.2,16.9,16.3C35.4,24,35.3,24.7,35.2,25.4
	L35.2,25.4z"/>
<path class="st0" d="M145.8,15.9c-4.3,0-8.4,1.4-11.8,4L135.7,0l-7,0.6l-4.4,50.2h7l1.4-16.5c0.7-6.4,6-11.3,12.4-11.4
	c3.2-0.1,5.8,2.5,5.8,5.6c0,0.2,0,0.5,0,0.7l-1.9,21.6h7l1.9-21.6c0.8-6.6-4-12.5-10.5-13.3C146.9,15.9,146.3,15.9,145.8,15.9z"/>
<path class="st0" d="M223.3,15.9c-4.3,0-8.4,1.4-11.8,4l0.2-2.4l-6.9-0.6l-3,34h7l1.5-16.5c0.7-6.4,6-11.3,12.4-11.4
	c3.2-0.1,5.8,2.5,5.8,5.6c0,0.2,0,0.5,0,0.7l-1.9,21.6h7l1.9-21.6c0.8-6.6-4-12.5-10.6-13.3C224.4,15.9,223.9,15.9,223.3,15.9z"/>
<path class="st0" d="M182,15.9c-9.3,0.2-17.1,7.3-18,16.5l-0.2,1.9c-0.9,8.2,5,15.5,13.2,16.4c0.6,0.1,1.3,0.1,1.9,0.1h0.6
	c7.2-0.1,13.6-4.6,16.2-11.3l-6.8-1.4c-1.6,3.4-5,5.5-8.8,5.6h-0.3c-3.8,0.1-7.2-2.3-8.5-5.8l25.7-5.3v-0.4
	c0.9-8.2-5-15.5-13.2-16.4C183.2,15.9,182.6,15.9,182,15.9z M171,32.5L171,32.5c0.5-5.3,5-9.4,10.4-9.5c3.7-0.1,7,2.2,8.2,5.7
	L171,32.5z"/>
<path class="st0" d="M75.6,18.6c-2.5-1.8-5.6-2.7-8.7-2.7c-9.8,0.2-18,7.7-19,17.5c-1,8.7,5.3,16.4,13.9,17.4
	c0.7,0.1,1.4,0.1,2.1,0.1c3.4,0,6.8-1.1,9.6-3c0.2,0.6,0.6,1.2,1,1.8h5.3l2.9-33.1l-7,0.6L75.6,18.6z M74.7,29.2l-0.5,5.7
	c-0.5,5-4.7,8.8-9.7,8.9c-5.2,0.1-9.5-4.1-9.6-9.3c0-0.4,0-0.8,0.1-1.2v-0.1c0.6-5.9,5.5-10.4,11.4-10.5h0.2
	C72,23,74.9,25.8,74.7,29.2L74.7,29.2z"/>
<path class="st0" d="M106,22.9c3.5-0.1,6.7,1.8,8.4,4.8l5.9-4.4c-2.9-4.7-8.1-7.5-13.7-7.4c-9.8,0.2-18,7.7-19,17.5
	c-1,8.7,5.3,16.4,13.9,17.4c0.7,0.1,1.4,0.1,2.1,0.1c5.9-0.1,11.4-2.8,15-7.4l-5.1-4.4c-2.1,3-5.6,4.7-9.2,4.8
	c-5.2,0.1-9.5-4.1-9.6-9.3c0-0.4,0-0.8,0.1-1.2C95.3,27.5,100.2,23.1,106,22.9z"/>
<path class="st1" d="M364.5,36l0.3-0.1v-2.6l-0.6,0.2c-1.1,0.3-2.2,0.6-3.4,0.9v-5.9h3.8V26h-3.8v-6.1h-2.6V26h-4.4v2.5h4.4v6.6
	c-1.8,0.4-3.3,0.8-4.4,1l-0.5,0.1l0.4,2.9l0.6-0.2c1.3-0.4,2.5-0.8,3.9-1.2v8.5c0.1,0.3,0,0.7-0.2,1c-0.3,0.2-0.6,0.3-0.9,0.3h-0.2
	c-0.8,0-1.5,0-2.3-0.1h-0.8l0.2,0.8c0.1,0.3,0.4,1.1,0.5,1.6l0.1,0.4h2.7c1,0.1,2-0.3,2.7-1c0.7-0.8,1-1.9,0.9-2.9v-9.3
	c0.6-0.2,1.4-0.4,2.2-0.7C363.8,36.3,364.3,36.1,364.5,36z"/>
<polygon class="st1" points="338.8,29.9 340.8,27.9 334.7,23 333.1,24.8 "/>
<path class="st1" d="M336.8,37.2l2-2c-1.8-1.7-3.8-3.3-5.8-4.8c-0.4,0.4-1.4,1.4-1.8,1.8C333.2,33.8,335,35.5,336.8,37.2z"/>
<polygon class="st1" points="344.3,38.9 344.3,19.8 341.7,19.8 341.7,39.1 329.5,40.2 329.7,42.9 341.7,41.8 341.7,50.6 344.3,50.6 
	344.3,41.5 349.7,41 349.4,38.4 "/>
<path class="st1" d="M331.5,37.8c-1.5-1.6-3.2-3.1-4.9-4.4l-0.2,0.2v-2.1h4.9V29h-4.9v-4.8c1.8-0.2,4.9-0.6,4.9-0.6
	s-0.4-1.6-0.6-2.6c-3.9,0.6-7.8,1-11.8,1.2c0.2,0.8,0.3,1.6,0.4,2.5l4.5-0.2V29h-5.3v2.5h5.1c-1.4,5.2-5.6,11.3-5.6,11.3
	c0.5,0.8,1,1.6,1.4,2.4c1.7-2.6,3.1-5.2,4.4-8v13.3h2.6v-14c0.8,0.6,3.1,3,3.1,3C330.1,38.9,330.8,38.3,331.5,37.8z"/>
<path class="st1" d="M264.8,31h13.8v-2.8h-13.8v-8.6h-3.1v8.5H248V31h13.6c-0.6,7.3-5.1,13-13.5,17l-0.6,0.3
	c0.8,0.7,1.5,1.5,2.1,2.3l0.4-0.2c7.3-3.6,11.8-8.5,13.4-14.7c1.9,6.1,6.4,10.9,13.5,14.2l0.4,0.2c0.5-0.9,1.1-1.8,1.9-2.4
	C271.6,45.4,266,38.9,264.8,31z"/>
<path class="st1" d="M305.3,43.2c2-0.9,4.4-2.1,7.1-3.5l0.5-0.3l-1.8-2.3l-0.4,0.2c-2.1,1.2-4.6,2.5-7.4,3.8c-1-1.4-1.8-2.9-2.3-4.5
	h13.1v-2.6H289v-9.8h24.1v-2.6h-25.5c-0.8,0-1.4,0.6-1.4,1.4v11.8c0.1,2.8-0.1,5.5-0.6,8.3c-0.6,2-1.5,3.9-2.7,5.6l-0.3,0.4l0.4,0.3
	c0.5,0.3,1,0.7,1.4,1.1l0.4,0.4l0.3-0.5c2.5-3.5,3.8-8.1,3.7-13.7h3.5v9.8c0,0.6-0.2,1.1-0.7,1.5l-0.4,0.3l1.8,2.5l0.4-0.3
	c0.6-0.4,1.3-0.8,1.9-1.1c2.1-0.8,4.1-1.6,6.1-2.2l0.3-0.1v-2.7l-0.7,0.2c-2.4,0.9-4.4,1.6-6.1,2.1v-10h2.9
	c1.9,6.4,6.7,10.8,14.3,13l0.4,0.1l0.2-0.4c0.3-0.6,0.6-1.1,1.1-1.5l0.5-0.6l-0.8-0.2C309.9,46.1,307,44.8,305.3,43.2z"/>
<rect x="290.2" y="27.9" class="st1" width="21.6" height="2.5"/>
<path class="st1" d="M376.4,44.1c2.7-2.8,4.8-6.3,6.1-10v-0.8c0-0.8-0.6-1.4-1.4-1.4H376v-4.4h8.5v-2.6H376v-5h-2.6v5h-8v2.6h8v4.4
	h-7.6v2.5h1.6c1,3.6,2.7,6.8,5.1,9.6c-3.1,1.8-6.5,3.3-10,4.3c0.7,0.6,1.4,1.4,1.9,2.3c3.6-1.1,7-2.7,10.2-4.8
	c2.7,2.1,5.8,3.7,9,4.8c0.5-0.9,1.1-1.8,1.8-2.5C382,47.3,379.1,46,376.4,44.1z M374.4,42.3c-1.9-2.3-3.4-5-4.3-7.9h9.5
	C378.5,37.4,376.7,40.1,374.4,42.3z"/>
</svg>
